<?xml version="1.0" encoding="UTF-8" standalone="no"?>
<svg
   version="1.1"
   id="Layer_1"
   x="0px"
   y="0px"
   viewBox="0 0 88.890001 83.219712"
   xml:space="preserve"
   sodipodi:docname="panel_right_icon.svg"
   inkscape:version="1.1 (c68e22c387, 2021-05-23)"
   width="88.889999"
   height="83.219711"
   xmlns:inkscape="http://www.inkscape.org/namespaces/inkscape"
   xmlns:sodipodi="http://sodipodi.sourceforge.net/DTD/sodipodi-0.dtd"
   xmlns="http://www.w3.org/2000/svg"
   xmlns:svg="http://www.w3.org/2000/svg"><defs
     id="defs9" /><sodipodi:namedview
     id="namedview7"
     pagecolor="#ffffff"
     bordercolor="#666666"
     borderopacity="1.0"
     inkscape:pageshadow="2"
     inkscape:pageopacity="0.0"
     inkscape:pagecheckerboard="0"
     showgrid="false"
     inkscape:zoom="4.0740296"
     inkscape:cx="60.99612"
     inkscape:cy="51.177831"
     inkscape:window-width="1600"
     inkscape:window-height="837"
     inkscape:window-x="-8"
     inkscape:window-y="-8"
     inkscape:window-maximized="1"
     inkscape:current-layer="Layer_1"
     fit-margin-top="0"
     fit-margin-left="0"
     fit-margin-right="0"
     fit-margin-bottom="0" /><path
     d="m 87.18,46.439855 -27.44,33.95 c -2.62,3.26 -7.4,3.78 -10.66,1.16 -3.26,-2.62 -3.78,-7.4 -1.16,-10.66 l 17.55,-21.7 -57.9,0.02 c -4.18,0 -7.57,-3.39 -7.57,-7.57 0,-4.18 3.39,-7.57 7.57,-7.57 l 57.91,-0.02 -17.55,-21.72 c -2.62,-3.2599997 -2.1,-8.0299997 1.16,-10.6599997 3.26,-2.62000002 8.03,-2.10000002 10.66,1.16 l 27.43,33.9599997 0.06,0.08 0.24,0.31 0.04,0.06 0.07,0.1 0.04,0.05 0.07,0.11 0.1,0.16 0.03,0.04 0.07,0.12 0.02,0.04 0.07,0.13 0.02,0.04 0.07,0.13 0.02,0.03 0.07,0.14 0.01,0.03 0.07,0.14 0.01,0.03 0.06,0.14 0.01,0.02 0.06,0.15 0.01,0.02 0.06,0.15 v 0.02 l 0.11,0.33 v 0.01 l 0.1,0.34 v 0.01 l 0.04,0.17 v 0.01 l 0.04,0.17 v 0.01 l 0.03,0.17 v 0 l 0.03,0.18 v 0 l 0.02,0.18 v 0 l 0.02,0.18 v 0 l 0.02,0.18 0.01,0.18 v 0 l 0.01,0.18 v 0.18 0.18 0.18 l -0.01,0.18 v 0 l -0.01,0.18 -0.02,0.18 v 0 l -0.02,0.18 v 0 l -0.02,0.18 v 0 l -0.03,0.18 v 0 l -0.03,0.17 v 0.01 l -0.04,0.17 v 0.01 l -0.04,0.17 v 0.01 l -0.1,0.34 v 0.01 l -0.11,0.33 v 0.02 l -0.06,0.15 -0.01,0.02 -0.06,0.15 -0.01,0.02 -0.06,0.14 -0.01,0.03 -0.07,0.14 -0.01,0.03 -0.07,0.14 -0.02,0.03 -0.07,0.13 -0.02,0.04 -0.07,0.13 -0.02,0.04 -0.07,0.12 -0.03,0.04 -0.1,0.16 -0.07,0.11 -0.04,0.05 -0.07,0.1 -0.04,0.06 -0.24,0.31 z"
     id="path909"
     style="fill:#1a1a1a;fill-opacity:1" /></svg>
