<?xml version="1.0" encoding="UTF-8" standalone="no"?>
<svg
   version="1.1"
   id="Layer_1"
   x="0px"
   y="0px"
   viewBox="0 0 123.88 123.87001"
   xml:space="preserve"
   sodipodi:docname="theme_icon.svg"
   inkscape:version="1.1 (c68e22c387, 2021-05-23)"
   width="123.88"
   height="123.87"
   xmlns:inkscape="http://www.inkscape.org/namespaces/inkscape"
   xmlns:sodipodi="http://sodipodi.sourceforge.net/DTD/sodipodi-0.dtd"
   xmlns="http://www.w3.org/2000/svg"
   xmlns:svg="http://www.w3.org/2000/svg"><defs
     id="defs11" /><sodipodi:namedview
     id="namedview9"
     pagecolor="#ffffff"
     bordercolor="#666666"
     borderopacity="1.0"
     inkscape:pageshadow="2"
     inkscape:pageopacity="0.0"
     inkscape:pagecheckerboard="0"
     showgrid="false"
     inkscape:zoom="2.7587891"
     inkscape:cx="18.305132"
     inkscape:cy="54.190442"
     inkscape:window-width="1600"
     inkscape:window-height="837"
     inkscape:window-x="-8"
     inkscape:window-y="-8"
     inkscape:window-maximized="1"
     inkscape:current-layer="Layer_1"
     fit-margin-top="0"
     fit-margin-left="0"
     fit-margin-right="0"
     fit-margin-bottom="0" /><style
     type="text/css"
     id="style2">.st0{fill-rule:evenodd;clip-rule:evenodd;}</style><g
     id="g6"
     style="fill:#000000;fill-opacity:1;stroke:#000000"
     transform="translate(0.5,0.5)"><path
       class="st0"
       d="m 122.88,61.44 v 0 0 c 0,8.47 -1.5,16.34 -4.5,23.58 -0.49,1.19 -1.02,2.35 -1.59,3.49 -2.92,5.89 -6.89,11.35 -11.92,16.36 v 0 0 0 0 0 c -1.67,1.68 -3.4,3.24 -5.17,4.68 -1.78,1.45 -3.61,2.78 -5.48,3.98 -9.65,6.23 -20.58,9.34 -32.78,9.34 v 0 0 c -8.47,0 -16.33,-1.5 -23.58,-4.5 -1.19,-0.49 -2.35,-1.02 -3.49,-1.59 -5.89,-2.92 -11.35,-6.89 -16.36,-11.92 v 0 0 0 0 0 c -1.68,-1.67 -3.24,-3.4 -4.68,-5.17 C 11.88,97.91 10.55,96.08 9.35,94.21 3.11,84.58 0,73.64 0,61.44 v 0 0 C 0,52.97 1.5,45.11 4.5,37.86 4.99,36.67 5.52,35.51 6.09,34.37 9.01,28.48 12.98,23.02 18.01,18.01 v 0 0 0 0 0 c 1.67,-1.68 3.4,-3.24 5.17,-4.68 1.78,-1.45 3.61,-2.78 5.48,-3.98 C 38.3,3.11 49.24,0 61.44,0 v 0 0 c 8.47,0 16.33,1.5 23.58,4.5 1.19,0.49 2.35,1.02 3.49,1.59 5.89,2.92 11.35,6.89 16.36,11.92 v 0 0 0 0 0 c 1.68,1.67 3.24,3.4 4.68,5.17 1.45,1.78 2.78,3.61 3.98,5.48 6.24,9.64 9.35,20.58 9.35,32.78 z M 61.44,10.96 c 0.11,0 0.22,0 0.32,0 v 100.96 c -0.11,0 -0.22,0 -0.32,0 -27.88,0 -50.48,-22.6 -50.48,-50.48 0,-27.88 22.6,-50.48 50.48,-50.48 z"
       id="path4"
       style="fill:#000000;fill-opacity:1;stroke:#000000" /></g></svg>
