<?xml version="1.0" encoding="UTF-8" standalone="no"?>
<svg
   data-name="Layer 1"
   id="Layer_1"
   viewBox="0 0 108 108"
   version="1.1"
   sodipodi:docname="globe.svg"
   width="108"
   height="108"
   inkscape:version="1.1.2 (b8e25be833, 2022-02-05)"
   xmlns:inkscape="http://www.inkscape.org/namespaces/inkscape"
   xmlns:sodipodi="http://sodipodi.sourceforge.net/DTD/sodipodi-0.dtd"
   xmlns="http://www.w3.org/2000/svg"
   xmlns:svg="http://www.w3.org/2000/svg">
  <sodipodi:namedview
     id="namedview17"
     pagecolor="#505050"
     bordercolor="#eeeeee"
     borderopacity="1"
     inkscape:pageshadow="0"
     inkscape:pageopacity="0"
     inkscape:pagecheckerboard="0"
     showgrid="false"
     inkscape:zoom="5.0859375"
     inkscape:cx="0.49155146"
     inkscape:cy="52.301075"
     inkscape:window-width="1600"
     inkscape:window-height="837"
     inkscape:window-x="-8"
     inkscape:window-y="-8"
     inkscape:window-maximized="1"
     inkscape:current-layer="Layer_1"
     fit-margin-top="0"
     fit-margin-left="0"
     fit-margin-right="0"
     fit-margin-bottom="0" />
  <defs
     id="defs4">
    <style
       id="style2">.cls-1{fill:#062b31;}.cls-2{fill:none;stroke:#062b31;stroke-miterlimit:10;stroke-width:6.5px;}</style>
  </defs>
  <title
     id="title6" />
  <path
     class="cls-1"
     d="M 54,6.5 A 47.5,47.5 0 1 1 6.5,54 47.55,47.55 0 0 1 54,6.5 M 54,0 A 54,54 0 1 0 108,54 54,54 0 0 0 54,0 Z"
     id="path8"
     style="fill:#000000" />
  <path
     class="cls-1"
     d="m 55.08,6.5 c 2.09,0 5.78,3.66 8.93,11.69 3.71,9.46 5.75,22.18 5.75,35.81 0,13.63 -2,26.35 -5.75,35.81 -3.15,8 -6.83,11.69 -8.93,11.69 -2.1,0 -5.78,-3.66 -8.93,-11.69 C 42.45,80.35 40.4,67.63 40.4,54 40.4,40.37 42.4,27.65 46.15,18.19 49.31,10.15 53,6.5 55.08,6.5 m 0,-6.5 C 43.38,0 33.9,24.18 33.9,54 c 0,29.82 9.48,54 21.18,54 11.7,0 21.18,-24.18 21.18,-54 0,-29.82 -9.48,-54 -21.18,-54 z"
     id="path10"
     style="fill:#000000" />
  <line
     class="cls-2"
     x1="7.6599998"
     x2="102.5"
     y1="70.870003"
     y2="70.870003"
     id="line12"
     style="fill:#000000;stroke:#000000" />
  <line
     class="cls-2"
     x1="7.6599998"
     x2="102.5"
     y1="37.119999"
     y2="37.119999"
     id="line14"
     style="fill:#000000;stroke:#000000" />
</svg>
