<?xml version="1.0" encoding="UTF-8" standalone="no"?>
<svg
   width="1802.9537"
   height="269.14511"
   viewBox="0 0 477.03151 71.21131"
   version="1.1"
   id="svg8"
   inkscape:version="1.1.2 (b8e25be833, 2022-02-05)"
   sodipodi:docname="logo.svg"
   inkscape:export-filename="C:\Users\nassr\Desktop\logo.png"
   inkscape:export-xdpi="40"
   inkscape:export-ydpi="40"
   xmlns:inkscape="http://www.inkscape.org/namespaces/inkscape"
   xmlns:sodipodi="http://sodipodi.sourceforge.net/DTD/sodipodi-0.dtd"
   xmlns="http://www.w3.org/2000/svg"
   xmlns:svg="http://www.w3.org/2000/svg"
   xmlns:rdf="http://www.w3.org/1999/02/22-rdf-syntax-ns#"
   xmlns:cc="http://creativecommons.org/ns#"
   xmlns:dc="http://purl.org/dc/elements/1.1/">
  <defs
     id="defs2">
    <inkscape:perspective
       sodipodi:type="inkscape:persp3d"
       inkscape:vp_x="254.05377 : 754.35869 : 1"
       inkscape:vp_y="-1126.9362 : -373.76784 : 0"
       inkscape:vp_z="521.57302 : 156.78709 : 1"
       inkscape:persp3d-origin="462.94249 : 480.49079 : 1"
       id="perspective1535" />
  </defs>
  <sodipodi:namedview
     id="base"
     pagecolor="#ffffff"
     bordercolor="#666666"
     borderopacity="1.0"
     inkscape:pageopacity="0.0"
     inkscape:pageshadow="2"
     inkscape:zoom="0.35"
     inkscape:cx="910"
     inkscape:cy="317.14286"
     inkscape:document-units="px"
     inkscape:current-layer="layer3"
     inkscape:document-rotation="0"
     showgrid="false"
     inkscape:window-width="1600"
     inkscape:window-height="837"
     inkscape:window-x="-8"
     inkscape:window-y="-8"
     inkscape:window-maximized="1"
     inkscape:snap-nodes="false"
     units="px"
     fit-margin-top="5"
     fit-margin-bottom="5"
     fit-margin-left="5"
     fit-margin-right="5"
     inkscape:pagecheckerboard="0" />
  <metadata
     id="metadata5">
    <rdf:RDF>
      <cc:Work
         rdf:about="">
        <dc:format>image/svg+xml</dc:format>
        <dc:type
           rdf:resource="http://purl.org/dc/dcmitype/StillImage" />
      </cc:Work>
    </rdf:RDF>
  </metadata>
  <g
     inkscape:groupmode="layer"
     id="layer3"
     inkscape:label="angled new link"
     style="display:inline"
     transform="translate(-154.26675,-103.18692)">
    <g
       id="g871"
       inkscape:export-filename="C:\python projects\tool_fetcher\web apps\main_app\public\images\icon.png"
       inkscape:export-xdpi="189.66977"
       inkscape:export-ydpi="189.66977"
       transform="matrix(0.1142758,0,0,0.1142758,177.66739,126.4073)">
      <g
         aria-label="&lt; "
         transform="matrix(-0.86519265,-0.89770848,1.0898266,-1.0503521,195.44083,143.84718)"
         id="text836-6-5"
         style="font-style:normal;font-weight:normal;font-size:369.769px;line-height:1.25;font-family:sans-serif;display:inline;fill:#ff8606;fill-opacity:1;stroke:#ff8606;stroke-width:3.84465;stroke-miterlimit:4;stroke-dasharray:none;stroke-opacity:1">
        <path
           d="M -71.838482,67.917134 -244.8066,-3.2200685 V -39.691426 l 172.968118,-71.137204 v 39.721282 l -133.607948,48.026639 v 3.249923 l 133.607948,48.02664 z"
           style="font-style:normal;font-variant:normal;font-weight:normal;font-stretch:normal;font-family:'Cascadia Mono';-inkscape-font-specification:'Cascadia Mono';fill:#ffc420;fill-opacity:1;stroke:#ffc420;stroke-width:3.84465;stroke-miterlimit:4;stroke-dasharray:none;stroke-opacity:1"
           id="path852" />
      </g>
      <path
         fill="#010101"
         d="M 338.74527,62.90083 224.24828,173.81123 C 161.04479,235.08281 69.35395,243.24136 19.51567,192.0281 11.65645,183.99738 5.87531,179.20447 0.97891,169.48443 L 55.31297,116.8025 c 2.53166,-2.46894 3.96701,-2.12794 6.81693,-3.89402 1.95882,10.8863 6.82349,15.66384 14.61684,23.66485 24.88765,25.57496 70.82651,21.45287 102.36628,-9.10841 L 293.57489,16.55762 c 31.58007,-30.59939 37.00555,-76.26149 12.09765,-101.81686 -24.87283,-25.55844 -70.78836,-21.47293 -102.36632,9.10845 l -46.85392,40.88693 c -28.17294,-8.81422 -46.84091,-13.77644 -78.35999,-6.50338 l 80.07738,-80.72864 c 63.23641,-61.25676 154.89217,-69.41216 204.7677,-18.21997 49.84131,51.19743 39.00922,142.36303 -24.19212,203.61668 z M 54.19506,255.89218 7.41586,293.86288 c -31.55787,30.56289 -77.49265,34.65012 -102.3844,9.11005 -24.88769,-25.57493 -19.46223,-71.23702 12.09964,-101.83368 L 31.61103,90.23037 c 31.58012,-30.5994 77.47866,-34.68338 102.36634,-9.10844 7.77727,7.98574 16.79964,14.6532 18.79682,25.51818 2.87012,-1.78567 1.62047,-0.65066 4.14996,-3.10161 l 54.3319,-53.04192 C 206.40002,40.73843 199.06662,33.7158 191.20942,25.6682 141.36901,-25.52711 49.67814,-17.36857 -13.54131,43.88671 L -128.00321,154.794 c -63.22047,61.27304 -74.05046,152.4207 -24.19519,203.63248 49.85945,51.17688 141.53331,43.01984 204.7508,-18.21848 l 76.92837,-81.79371 c -31.53934,7.29267 -47.12764,6.27564 -75.28571,-2.52211 z"
         id="path2"
         style="fill:#50c6fa;fill-opacity:1;stroke:#50c6fa;stroke-width:11.22;stroke-miterlimit:4;stroke-dasharray:none;stroke-opacity:1"
         sodipodi:nodetypes="ccccccccsccccccccccccccccccccccc" />
      <g
         aria-label="&lt; "
         transform="matrix(0.86364444,0.89919805,-1.0916349,1.0484726,17.78011,73.20453)"
         id="text836-6-5-7"
         style="font-style:normal;font-weight:normal;font-size:369.769px;line-height:1.25;font-family:sans-serif;display:inline;fill:#ff8606;fill-opacity:1;stroke:#ff8606;stroke-width:3.84465;stroke-miterlimit:4;stroke-dasharray:none;stroke-opacity:1">
        <path
           d="M -71.838482,67.917134 -244.8066,-3.2200685 V -39.691426 l 172.968118,-71.137204 v 39.721282 l -133.607948,48.026639 v 3.249923 l 133.607948,48.02664 z"
           style="font-style:normal;font-variant:normal;font-weight:normal;font-stretch:normal;font-family:'Cascadia Mono';-inkscape-font-specification:'Cascadia Mono';fill:#ffc420;fill-opacity:1;stroke:#ffc420;stroke-width:3.84465;stroke-miterlimit:4;stroke-dasharray:none;stroke-opacity:1"
           id="path852-6" />
      </g>
    </g>
    <text
       xml:space="preserve"
       style="font-size:553.408px;line-height:1.25;font-family:sans-serif;stroke-width:1.03764;fill:#000000"
       x="239.89183"
       y="163.10802"
       id="text879"
       inkscape:export-filename="C:\Users\nassr\Desktop\logo.png"
       inkscape:export-xdpi="40"
       inkscape:export-ydpi="40"><tspan
         id="tspan877"
         x="239.89183"
         y="163.10802"
         style="font-style:normal;font-variant:normal;font-weight:bold;font-stretch:normal;font-size:69.1762px;font-family:Nunito;-inkscape-font-specification:'Nunito, Bold';font-variant-ligatures:normal;font-variant-caps:normal;font-variant-numeric:normal;font-variant-east-asian:normal;stroke-width:1.03764;fill:#000000"
         sodipodi:role="line">Tool <tspan
   style="font-style:italic;font-variant:normal;font-weight:normal;font-stretch:normal;font-size:69.1762px;font-family:Nunito;-inkscape-font-specification:'Nunito, Italic';font-variant-ligatures:normal;font-variant-caps:normal;font-variant-numeric:normal;font-variant-east-asian:normal;stroke-width:1.03764;fill:#000000"
   id="tspan77795">Fetcher</tspan></tspan></text>
  </g>
</svg>
