<?xml version="1.0" encoding="UTF-8" standalone="no"?>
<svg
   width="1802.9537"
   height="269.14511"
   viewBox="0 0 477.03151 71.21131"
   version="1.1"
   id="svg8"
   inkscape:version="1.1.2 (b8e25be833, 2022-02-05)"
   sodipodi:docname="logo.svg"
   inkscape:export-filename="C:\Users\nassr\Desktop\logo.png"
   inkscape:export-xdpi="40"
   inkscape:export-ydpi="40"
   xmlns:inkscape="http://www.inkscape.org/namespaces/inkscape"
   xmlns:sodipodi="http://sodipodi.sourceforge.net/DTD/sodipodi-0.dtd"
   xmlns="http://www.w3.org/2000/svg"
   xmlns:svg="http://www.w3.org/2000/svg"
   xmlns:rdf="http://www.w3.org/1999/02/22-rdf-syntax-ns#"
   xmlns:cc="http://creativecommons.org/ns#"
   xmlns:dc="http://purl.org/dc/elements/1.1/">
  <defs
     id="defs2">
    <inkscape:perspective
       sodipodi:type="inkscape:persp3d"
       inkscape:vp_x="254.05377 : 754.35869 : 1"
       inkscape:vp_y="-1126.9362 : -373.76784 : 0"
       inkscape:vp_z="521.57302 : 156.78709 : 1"
       inkscape:persp3d-origin="462.94249 : 480.49079 : 1"
       id="perspective1535" />
  </defs>
  <sodipodi:namedview
     id="base"
     pagecolor="#ffffff"
     bordercolor="#666666"
     borderopacity="1.0"
     inkscape:pageopacity="0.0"
     inkscape:pageshadow="2"
     inkscape:zoom="0.35"
     inkscape:cx="910"
     inkscape:cy="317.14286"
     inkscape:document-units="px"
     inkscape:current-layer="layer3"
     inkscape:document-rotation="0"
     showgrid="false"
     inkscape:window-width="1600"
     inkscape:window-height="837"
     inkscape:window-x="-8"
     inkscape:window-y="-8"
     inkscape:window-maximized="1"
     inkscape:snap-nodes="false"
     units="px"
     fit-margin-top="5"
     fit-margin-bottom="5"
     fit-margin-left="5"
     fit-margin-right="5"
     inkscape:pagecheckerboard="0" />
  <metadata
     id="metadata5">
    <rdf:RDF>
      <cc:Work
         rdf:about="">
        <dc:format>image/svg+xml</dc:format>
        <dc:type
           rdf:resource="http://purl.org/dc/dcmitype/StillImage" />
      </cc:Work>
    </rdf:RDF>
  </metadata>
  <g
     inkscape:groupmode="layer"
     id="layer3"
     inkscape:label="angled new link"
     style="display:inline"
     transform="translate(-154.26675,-103.18692)">
    <g
       aria-label="&lt; "
       transform="matrix(-0.09887058,-0.10258635,0.12454081,-0.12002983,200.00155,142.84555)"
       id="text836-6-5"
       style="font-style:normal;font-weight:normal;font-size:369.769px;line-height:1.25;font-family:sans-serif;display:inline;fill:#d19a00;fill-opacity:1;stroke:#ff8606;stroke-width:3.84465;stroke-miterlimit:4;stroke-dasharray:none;stroke-opacity:1">
      <path
         d="M -71.838482,67.917134 -244.8066,-3.2200685 V -39.691426 l 172.968118,-71.137204 v 39.721282 l -133.607948,48.026639 v 3.249923 l 133.607948,48.02664 z"
         style="font-style:normal;font-variant:normal;font-weight:normal;font-stretch:normal;font-family:'Cascadia Mono';-inkscape-font-specification:'Cascadia Mono';fill:#d19a00;fill-opacity:1;stroke:#d19a00;stroke-width:3.84465;stroke-miterlimit:4;stroke-dasharray:none;stroke-opacity:1"
         id="path852" />
    </g>
    <path
       fill="#010101"
       d="m 216.37778,133.59534 -13.08424,12.67438 c -7.22263,7.00186 -17.70067,7.93418 -23.39598,2.08174 -0.89812,-0.91771 -1.55876,-1.46543 -2.1183,-2.57619 l 6.20906,-6.02027 c 0.28931,-0.28214 0.45334,-0.24317 0.77901,-0.44499 0.22385,1.24404 0.77976,1.78999 1.67036,2.70432 2.84405,2.9226 8.09375,2.45154 11.69798,-1.04087 l 13.08023,-12.67402 c 3.60883,-3.49677 4.22883,-8.71485 1.38246,-11.63521 -2.84236,-2.92071 -8.08939,-2.45383 -11.69799,1.04088 l -5.35427,4.67238 c -3.21948,-1.00725 -5.35278,-1.57431 -8.95465,-0.74317 l 9.15091,-9.22533 c 7.22639,-7.00017 17.70042,-7.93213 23.39999,-2.08211 5.69566,5.85063 4.45781,16.26865 -2.76457,23.26846 z m -32.51721,22.05424 -5.34573,4.33914 c -3.6063,3.49259 -8.85553,3.95967 -11.70006,1.04105 -2.84406,-2.92259 -2.22406,-8.14066 1.3827,-11.63712 l 13.08229,-12.6742 c 3.60884,-3.49677 8.85393,-3.96347 11.69799,-1.04088 0.88875,0.91258 1.91979,1.67451 2.14802,2.91611 0.32799,-0.20405 0.18518,-0.0744 0.47424,-0.35444 l 6.20882,-6.0614 c -0.55492,-1.11512 -1.39295,-1.91764 -2.29084,-2.83729 -5.69555,-5.85038 -16.1736,-4.91806 -23.39805,2.08194 l -13.08023,12.67402 c -7.22457,7.00202 -8.46217,17.418 -2.76492,23.27026 5.69772,5.84828 16.17383,4.91613 23.39806,-2.08193 l 8.79105,-9.34704 c -3.60418,0.83338 -5.38555,0.71715 -8.60334,-0.28822 z"
       id="path2"
       style="fill:#54a5c9;fill-opacity:1;stroke:#54a5c9;stroke-width:1.28217;stroke-miterlimit:4;stroke-dasharray:none;stroke-opacity:1"
       sodipodi:nodetypes="ccccccccsccccccccccccccccccccccc" />
    <g
       aria-label="&lt; "
       transform="matrix(0.09869366,0.10275658,-0.12474745,0.11981505,179.69923,134.77281)"
       id="text836-6-5-7"
       style="font-style:normal;font-weight:normal;font-size:369.769px;line-height:1.25;font-family:sans-serif;display:inline;fill:#d19a00;fill-opacity:1;stroke:#d19a00;stroke-width:3.84465;stroke-miterlimit:4;stroke-dasharray:none;stroke-opacity:1">
      <path
         d="M -71.838482,67.917134 -244.8066,-3.2200685 V -39.691426 l 172.968118,-71.137204 v 39.721282 l -133.607948,48.026639 v 3.249923 l 133.607948,48.02664 z"
         style="font-style:normal;font-variant:normal;font-weight:normal;font-stretch:normal;font-family:'Cascadia Mono';-inkscape-font-specification:'Cascadia Mono';fill:#d19a00;fill-opacity:1;stroke:#d19a00;stroke-width:3.84465;stroke-miterlimit:4;stroke-dasharray:none;stroke-opacity:1"
         id="path852-6" />
    </g>
    <text
       xml:space="preserve"
       style="font-size:553.408px;line-height:1.25;font-family:sans-serif;fill:#000000;stroke-width:1.03764"
       x="239.89183"
       y="163.10802"
       id="text879"
       inkscape:export-filename="C:\Users\nassr\Desktop\logo.png"
       inkscape:export-xdpi="40"
       inkscape:export-ydpi="40"><tspan
         id="tspan877"
         x="239.89183"
         y="163.10802"
         style="font-style:normal;font-variant:normal;font-weight:bold;font-stretch:normal;font-size:69.1762px;font-family:Nunito;-inkscape-font-specification:'Nunito, Bold';font-variant-ligatures:normal;font-variant-caps:normal;font-variant-numeric:normal;font-variant-east-asian:normal;fill:#000000;stroke-width:1.03764"
         sodipodi:role="line">Tool <tspan
   style="font-style:italic;font-variant:normal;font-weight:normal;font-stretch:normal;font-size:69.1762px;font-family:Nunito;-inkscape-font-specification:'Nunito, Italic';font-variant-ligatures:normal;font-variant-caps:normal;font-variant-numeric:normal;font-variant-east-asian:normal;fill:#000000;stroke-width:1.03764"
   id="tspan77795">Fetcher</tspan></tspan></text>
  </g>
</svg>
